PathFileType	4	(X/Y/Z)	/Users/itak/Documents/Research/Walk-IL/dataset/trc/00277_00010.trc
DataRate	CameraRate	NumFrames	NumMarkers	Units	OrigDataRate	OrigDataStartFrame	OrigNumFrames
100.000000	100.000000	4	53	mm	100.000000	420	672
Frame#	Time	RPSI			LPSI			L3			STRN			T10			C7			CLAV			RBAK			LBAK			LSHO			LUPA			LAEL			LAOL			LWTS			LWPS			LFRA			LIFD			LHPS			LHTS			RSHO			RUPA			RAEL			RAOL			RWTS			RWPS			RFRA			RIFD			RHTS			RHPS			RBHD			LFHD			RFHD			LBHD			LHIP			RHIP			RASI			LASI			LKNE			LTHI			LANK			LTIP			LTOE			LMT1			LMT5			LHEE			RKNE			RTHI			RANK			RTIP			RTOE			RMT1			RMT5			RHEE			
		X1	Y1	Z1	X2	Y2	Z2	X3	Y3	Z3	X4	Y4	Z4	X5	Y5	Z5	X6	Y6	Z6	X7	Y7	Z7	X8	Y8	Z8	X9	Y9	Z9	X10	Y10	Z10	X11	Y11	Z11	X12	Y12	Z12	X13	Y13	Z13	X14	Y14	Z14	X15	Y15	Z15	X16	Y16	Z16	X17	Y17	Z17	X18	Y18	Z18	X19	Y19	Z19	X20	Y20	Z20	X21	Y21	Z21	X22	Y22	Z22	X23	Y23	Z23	X24	Y24	Z24	X25	Y25	Z25	X26	Y26	Z26	X27	Y27	Z27	X28	Y28	Z28	X29	Y29	Z29	X30	Y30	Z30	X31	Y31	Z31	X32	Y32	Z32	X33	Y33	Z33	X34	Y34	Z34	X35	Y35	Z35	X36	Y36	Z36	X37	Y37	Z37	X38	Y38	Z38	X39	Y39	Z39	X40	Y40	Z40	X41	Y41	Z41	X42	Y42	Z42	X43	Y43	Z43	X44	Y44	Z44	X45	Y45	Z45	X46	Y46	Z46	X47	Y47	Z47	X48	Y48	Z48	X49	Y49	Z49	X50	Y50	Z50	X51	Y51	Z51	X52	Y52	Z52	X53	Y53	Z53	

421	4.2	-152.4326934814453	965.274658203125	-484.3259887695312	-34.77706146240234	945.01171875	-354.5010986328125	-88.58246612548828	1015.958251953125	-397.1657104492188	-268.123779296875	1200.057373046875	-241.7093505859375	-60.26664352416992	1129.03125	-401.0575256347656	-72.23403167724609	1376.1220703125	-358.940673828125	-209.4218597412109	1297.990112304688	-274.7342834472656	-82.08551025390625	1236.796508789062	-449.8253479003906	1.444091200828552	1334.754272460938	-285.141845703125	-42.39062118530273	1341.396484375	-190.3853912353516	18.38929557800293	1218.815307617188	-150.6650543212891	6.067128658294678	1014.509521484375	-138.8607025146484	19.28190231323242	999.8596801757812	-223.6591644287109	-126.0026779174805	821.5723876953125	-119.7163391113281	-63.4759635925293	795.6620483398438	-92.63629150390625	-17.57574462890625	914.3427124023438	-121.7959976196289	-178.6206970214844	645.5151977539062	-90.90453338623047	-90.89065551757812	713.8282470703125	-82.96488189697266	-153.8051452636719	734.4995727539062	-75.82444000244141	-218.0601196289062	1360.395385742188	-451.7085876464844	-247.9875793457031	1308.7041015625	-515.5357055664062	-248.0539703369141	1051.957641601562	-596.016845703125	-186.908447265625	1036.432006835938	-525.0672607421875	-306.9318237304688	812.449951171875	-560.7811279296875	-289.4106750488281	827.6016235351562	-642.759033203125	-270.5633850097656	986.774658203125	-611.8413696289062	-291.91064453125	632.351318359375	-601.3458251953125	-328.6762390136719	698.495849609375	-595.2463989257812	-299.0380859375	714.8084106445312	-656.3191528320312	-178.0188598632812	1547.663940429688	-383.1168518066406	-177.2354278564453	1553.833740234375	-169.9149627685547	-253.8001556396484	1557.313720703125	-224.1765594482422	-58.96995544433594	1531.586547851562	-299.5396118164062	-17.83932304382324	884.3953857421875	-243.5181884765625	-299.9110412597656	928.9214477539062	-489.8803100585938	-330.26318359375	923.8540649414062	-355.8645629882812	-149.8305969238281	888.9705200195312	-180.2017211914062	-38.18686294555664	438.5145568847656	-350.0999755859375	-39.88408279418945	570.7186889648438	-292.9494934082031	162.8306884765625	98.0955810546875	-581.3720092773438	68.42588043212891	260.3361511230469	-461.8215637207031	-20.69203758239746	33.53556060791016	-650.0062255859375	39.29725646972656	55.28305053710938	-682.60498046875	55.120849609375	39.5770263671875	-573.8705444335938	193.1335601806641	139.6998443603516	-635.7081298828125	-419.8348999023438	496.3308410644531	-318.384521484375	-384.3759765625	740.3431396484375	-403.7100524902344	-467.2767944335938	37.76492691040039	-310.0138854980469	-442.6593933105469	375.8298645019531	-281.8641357421875	-482.2678833007812	65.42308807373047	-113.5886154174805	-425.4457702636719	56.69042587280273	-150.9308776855469	-520.4482421875	32.85219573974609	-218.6962585449219	-402.0926208496094	36.06671142578125	-340.4371948242188	
422	4.21	-162.2281951904297	968.3099975585938	-475.7173156738281	-43.50234985351562	946.5195922851562	-347.3197631835938	-97.80625152587891	1018.137390136719	-389.4122924804688	-276.0234985351562	1202.613159179688	-232.5024566650391	-69.65065002441406	1130.826049804688	-394.2806701660156	-81.46265411376953	1377.983520507812	-353.4923706054688	-217.5184326171875	1300.258544921875	-267.0555114746094	-92.46534729003906	1238.0595703125	-443.4463500976562	-6.784427642822266	1337.1513671875	-280.4007568359375	-49.43598556518555	1344.31640625	-185.1295928955078	11.55499076843262	1221.8779296875	-145.4207763671875	-0.2076902687549591	1017.134338378906	-133.9464263916016	11.43639373779297	1003.141235351562	-218.8368225097656	-124.728401184082	817.6514282226562	-116.5308151245117	-60.25851440429688	794.307373046875	-91.45494079589844	-20.29877662658691	915.4950561523438	-118.2328262329102	-166.4482421875	638.3384399414062	-90.58069610595703	-82.89931488037109	711.2278442382812	-83.40964508056641	-146.5848236083984	728.0697021484375	-74.36138916015625	-228.5703582763672	1361.557373046875	-444.1369323730469	-259.3523559570312	1309.352783203125	-507.1527099609375	-261.4988098144531	1052.103393554688	-585.8797607421875	-199.8187866210938	1036.521850585938	-515.3008422851562	-321.2001953125	812.9310302734375	-550.3342895507812	-303.6222839355469	828.2088623046875	-632.330078125	-284.3145141601562	987.1376342773438	-601.4767456054688	-307.0205688476562	632.9698486328125	-592.052734375	-343.3872985839844	699.1224975585938	-585.3892822265625	-313.7280883789062	715.6849975585938	-646.3865966796875	-188.0112762451172	1549.671752929688	-376.4926452636719	-183.1043701171875	1556.143432617188	-163.2621459960938	-260.6878662109375	1559.418701171875	-216.1557464599609	-67.37429809570312	1533.900512695312	-295.189697265625	-25.30630683898926	885.3834838867188	-236.8805694580078	-310.0985717773438	932.83837890625	-479.7977905273438	-339.1310729980469	927.0341796875	-345.4812622070312	-156.5971832275391	890.5332641601562	-172.6261901855469	-49.30204772949219	437.4776611328125	-339.3147888183594	-50.03619384765625	570.263671875	-284.178955078125	156.1861267089844	104.4422912597656	-577.0013427734375	60.06787490844727	262.9957275390625	-454.4799499511719	-21.60472106933594	33.20997619628906	-649.0756225585938	35.84612655639648	58.76789474487305	-680.067626953125	52.73166275024414	38.88832092285156	-572.2763671875	183.6947784423828	149.5990447998047	-629.858642578125	-427.3497009277344	497.7532043457031	-310.2749633789062	-393.733154296875	744.3146362304688	-392.6341857910156	-468.2106018066406	37.49747467041016	-310.1287841796875	-448.067626953125	375.9675903320312	-275.6316223144531	-483.6884155273438	63.34700393676758	-112.9675140380859	-426.75244140625	56.24912643432617	-150.8201141357422	-521.2083740234375	31.77853584289551	-218.9449920654297	-402.9403991699219	36.633544921875	-340.6236267089844	
423	4.22	-171.9726867675781	971.4473266601562	-467.297607421875	-51.93015670776367	948.326904296875	-340.6205139160156	-106.6492538452148	1020.6669921875	-382.0308532714844	-283.55078125	1205.383544921875	-223.1274261474609	-78.80535125732422	1133.010620117188	-387.5936889648438	-90.57665252685547	1380.163208007812	-347.8531494140625	-225.3478240966797	1302.795166015625	-259.2088623046875	-102.7394027709961	1239.750244140625	-436.9794311523438	-14.83906555175781	1339.900756835938	-275.5366516113281	-56.33251190185547	1347.521118164062	-179.7887420654297	4.784366607666016	1225.317504882812	-139.8981170654297	-6.300188541412354	1020.279052734375	-128.824951171875	4.128631591796875	1006.813354492188	-213.6694488525391	-123.1266479492188	814.5321655273438	-113.5607757568359	-56.96530914306641	793.9679565429688	-90.21530914306641	-22.84852027893066	917.4542236328125	-114.4749603271484	-153.3348541259766	632.4033203125	-91.39952850341797	-74.62837982177734	709.8659057617188	-84.10551452636719	-138.9300231933594	722.5545654296875	-73.60590362548828	-238.9856262207031	1363.129150390625	-436.2332763671875	-270.6907958984375	1310.5146484375	-498.4329833984375	-274.8663330078125	1052.81884765625	-575.4500122070312	-212.5346832275391	1037.204345703125	-505.3554382324219	-335.4830932617188	813.9852905273438	-539.297119140625	-317.9481201171875	829.298095703125	-621.3517456054688	-298.0169982910156	988.0355224609375	-590.7340087890625	-322.2896423339844	634.1099853515625	-582.0286865234375	-358.2405700683594	700.29736328125	-574.8115844726562	-328.6505737304688	717.0665283203125	-635.79541015625	-197.8944396972656	1551.826171875	-369.7532348632812	-188.9578704833984	1558.769165039062	-156.5856170654297	-267.5079345703125	1561.787353515625	-208.1128540039062	-75.75069427490234	1536.455810546875	-290.6858825683594	-32.4544563293457	886.7304077148438	-230.7230224609375	-320.1248474121094	936.6976928710938	-469.7767944335938	-347.6822204589844	930.3486938476562	-335.1327209472656	-162.9173126220703	892.5347290039062	-165.3131408691406	-60.58507537841797	436.4447631835938	-327.5595397949219	-60.09589767456055	569.9515991210938	-274.9396057128906	148.4737243652344	111.2245025634766	-571.7490844726562	51.07962036132812	265.8238220214844	-446.407470703125	-22.81813621520996	32.76959228515625	-647.9239501953125	31.62658500671387	62.7713508605957	-676.9537353515625	50.08664703369141	38.39296722412109	-570.421630859375	172.8036804199219	159.8092193603516	-622.9608764648438	-434.2947082519531	498.8760375976562	-303.2099304199219	-402.93017578125	747.96484375	-382.2834167480469	-469.0302429199219	37.26332473754883	-310.2853088378906	-453.0372314453125	375.9742431640625	-270.1992492675781	-484.6652526855469	61.81194686889648	-112.4952697753906	-427.7353210449219	56.08404922485352	-150.8126068115234	-521.7166137695312	31.14533805847168	-219.1728973388672	-403.7066650390625	37.02482223510742	-340.8800964355469	
424	4.23	-181.7311248779297	974.6373901367188	-459.1203308105469	-60.06477737426758	950.362548828125	-334.4972534179688	-115.2196273803711	1023.489624023438	-375.0518493652344	-290.6604614257812	1208.25830078125	-213.6031799316406	-87.78379821777344	1135.51708984375	-381.0675354003906	-99.57155609130859	1382.600463867188	-342.0334167480469	-232.8904724121094	1305.515869140625	-251.1863250732422	-112.9150619506836	1241.828979492188	-430.4671325683594	-22.71442031860352	1342.918579101562	-270.5801696777344	-63.05242538452148	1350.915283203125	-174.3782501220703	-1.855959177017212	1229.035766601562	-134.1610717773438	-12.0607328414917	1023.817260742188	-123.5017547607422	-2.490148305892944	1010.794860839844	-208.2214965820312	-121.2513580322266	812.2530517578125	-110.7837066650391	-53.74459838867188	794.5803833007812	-88.7799072265625	-25.21393966674805	920.1298828125	-110.5026168823242	-139.5916290283203	627.9019165039062	-93.37698364257812	-66.3238525390625	709.719482421875	-84.87837219238281	-131.0874786376953	718.0443115234375	-73.54229736328125	-249.3057403564453	1365.052734375	-427.9954528808594	-282.0098571777344	1312.13916015625	-489.3829956054688	-288.1408386230469	1054.057739257812	-564.7899169921875	-225.032958984375	1038.432739257812	-495.3194274902344	-349.7381896972656	815.5721435546875	-527.6734619140625	-332.3916320800781	830.8038940429688	-609.8388061523438	-311.6535339355469	989.4117431640625	-579.6664428710938	-337.69921875	635.7080688476562	-571.1807861328125	-373.2252197265625	701.97607421875	-563.4478759765625	-343.8174133300781	718.8688354492188	-624.5013427734375	-207.6360168457031	1554.067626953125	-362.8973388671875	-194.7960815429688	1561.655151367188	-149.8895874023438	-274.2568359375	1564.375244140625	-200.0514678955078	-84.07051086425781	1539.178955078125	-286.008544921875	-39.27956771850586	888.3522338867188	-225.1465148925781	-330.0443115234375	940.4303588867188	-459.8180847167969	-355.8759155273438	933.646728515625	-324.8291320800781	-168.7448883056641	894.8758544921875	-158.2580413818359	-71.966064453125	435.4696044921875	-314.9017944335938	-69.99033355712891	569.8063354492188	-265.2913513183594	139.6727905273438	118.4640884399414	-565.5684814453125	41.42070388793945	268.8219909667969	-437.5732727050781	-24.43661499023438	32.21937942504883	-646.4259033203125	26.5350341796875	67.30354309082031	-673.1259155273438	47.15738296508789	38.30034255981445	-568.2032470703125	160.4502105712891	170.246826171875	-615.0045166015625	-440.5476379394531	499.647705078125	-297.1670227050781	-411.8855590820312	751.0454711914062	-372.7634582519531	-469.7032470703125	37.07083511352539	-310.4242248535156	-457.5450439453125	375.8384704589844	-265.526611328125	-485.2262878417969	60.56997299194336	-112.0610580444336	-428.4004211425781	55.98454666137695	-150.8099670410156	-522.0068969726562	30.81930160522461	-219.3244018554688	-404.3773193359375	37.30072784423828	-341.1554260253906	
